<?xml version="1.0" standalone="no"?><!DOCTYPE svg PUBLIC "-//W3C//DTD SVG 1.1//EN" "http://www.w3.org/Graphics/SVG/1.1/DTD/svg11.dtd"><svg t="1674635555554" class="icon" viewBox="0 0 1024 1024" version="1.1" xmlns="http://www.w3.org/2000/svg" p-id="5597" xmlns:xlink="http://www.w3.org/1999/xlink" width="48" height="48"><path d="M471.9 339v411.2l354.7 63.1c14.3 2.5 27.4-8.5 27.4-23V385.8L471.9 339zM471.9 339v411.2l-271.9 59c-21.2 4.6-41.3-11.6-41.3-33.3V385.8L471.9 339z" fill="#8F3694" p-id="5598"></path><path d="M481.3 592.7c-3.8 9.7-13.9 15.4-24.1 13.6l-298.3-51.7v237.3c0 15.3 10.8 28.4 25.8 31.3L541 891.9V439.5l-59.7 153.2zM158.8 385.8v1.3l0.5-1.2zM540.9 436.9L280.1 402l260.8 35z" fill="#CAC134" p-id="5599"></path><path d="M541.3 437.1l-0.1-0.3-0.3 0.1v0.1zM854 385.8l-0.3 0.1 0.3 0.6zM611.3 594.6l-69.7-157-0.7 1.9v452.4L829.5 824c14.4-3.4 24.5-16.2 24.5-31V561.2l-218.2 45.9c-10.1 2.1-20.3-3.1-24.5-12.5zM103.2 517.6c-5.5 13 2.5 27.7 16.4 30.2l39.2 6.8V387.1l-55.6 130.5z" fill="#FFBA3B" p-id="5600"></path><path d="M159.3 385.8v0.1L280.1 402z" fill="#FE506B" p-id="5601"></path><path d="M481.3 592.7l59.6-153.2V437l-260.8-35-120.8-16.1-0.5 1.2v167.5l298.3 51.7c10.3 1.8 20.4-3.9 24.2-13.6z" fill="#CAC134" p-id="5602"></path><path d="M481.3 592.7l59.6-153.2V437l-260.8-35-120.8-16.1-0.5 1.2v167.5l298.3 51.7c10.3 1.8 20.4-3.9 24.2-13.6z" fill="#FF7C20" p-id="5603"></path><path d="M540.9 439.5l0.7-1.9-0.3-0.5-0.4-0.1z" fill="#FFBA3B" p-id="5604"></path><path d="M540.9 439.5l0.7-1.9-0.3-0.5-0.4-0.1z" fill="#FE506B" p-id="5605"></path><path d="M918.2 519.9L854 386.5v174.7l49-10.3c13.9-3 21.4-18.2 15.2-31z" fill="#FFBA3B" p-id="5606"></path><path d="M853.6 385.6L541 436.3l0.2 0.5 312.5-50.9z" fill="#FE506B" p-id="5607"></path><path d="M853.7 385.9l-312.5 50.9 0.1 0.3 0.4 0.1-0.2 0.5 69.7 157c4.2 9.4 14.4 14.7 24.5 12.5l218.3-46V386.5l-0.3-0.6z" fill="#FFBA3B" p-id="5608"></path><path d="M853.7 385.9l-312.5 50.9 0.1 0.3 0.4 0.1-0.2 0.5 69.7 157c4.2 9.4 14.4 14.7 24.5 12.5l218.3-46V386.5l-0.3-0.6z" fill="#FF7C20" p-id="5609"></path><path d="M541.8 437.1h-0.5l0.3 0.5z" fill="#FFBA3B" p-id="5610"></path><path d="M541.8 437.1h-0.5l0.3 0.5z" fill="#FE506B" p-id="5611"></path><path d="M541.8 437.1h-0.5l0.3 0.5z" fill="#FE506B" p-id="5612"></path><path d="M821.3 324H383.9c-26.2 0-47.5-21.3-47.5-47.5V173.8c0-26.2 21.3-47.5 47.5-47.5h437.4c26.2 0 47.5 21.3 47.5 47.5v102.7c0 26.2-21.3 47.5-47.5 47.5z" fill="#FFBA3B" p-id="5613"></path><path d="M486.6 298.6s6.4 6.7 4.8 50.4c-1.9 51.6 35.7 65.8 35.6 62.7-0.3-10.3-4.4-30.2 13.8-58.7 11.2-17.5 30.7-32.5 25.3-57.8-5-23.6-79.5 3.4-79.5 3.4z" fill="#FFBA3B" p-id="5614"></path><path d="M515.4 225.1m-19.2 0a19.2 19.2 0 1 0 38.4 0 19.2 19.2 0 1 0-38.4 0Z" fill="#FE506B" p-id="5615"></path><path d="M602.6 225.1m-19.2 0a19.2 19.2 0 1 0 38.4 0 19.2 19.2 0 1 0-38.4 0Z" fill="#FE506B" p-id="5616"></path><path d="M689.8 225.1m-19.2 0a19.2 19.2 0 1 0 38.4 0 19.2 19.2 0 1 0-38.4 0Z" fill="#FE506B" p-id="5617"></path></svg>